<svg id="Layer_1" enable-background="new 0 0 510.357 510.357" height="512" viewBox="0 0 510.357 510.357" width="512" xmlns="http://www.w3.org/2000/svg"><path d="m499.845 97.682.126-46.114c1.648-13.528-7.462-26.538-21.195-29.39l-33.834-7.51c-18.335-4.175-35.126 11.345-32.457 29.762 1.006 7.74 3.198 27.047 2.747 45.23-32.432 137.514-182.613 274.371-352.443 288.267-19.627 1.706-36.268 16.093-41.408 35.799-5.431 20.818 4.631 44.628 25.784 54.384 161.659 76.509 362.571-8.394 437.818-181.381 27.624-63.505 32.873-130.527 14.862-189.047z"/><path d="m77.951 344.082c104.351-14.258 197.988-78.595 254.676-154.9-86.928 39.147-183.018 51.2-273.724 27.141-19.873-5.163-40.542 3.898-51.168 20.156-12.334 18.973-9.685 44.024 6.29 59.612 18.814 18.723 40.366 34.86 63.926 47.991z"/></svg>